<svg width="300" height="300" viewBox="0 0 300 300" fill="none" xmlns="http://www.w3.org/2000/svg">
<rect width="300" height="300" rx="20" fill="#0C4144"/>
<path d="M176.756 62.5H122.362C94.7774 62.5 69.7499 83.209 69.7499 125.567V229.768C69.7499 231.752 70.5341 233.655 71.9299 235.059C73.3258 236.462 75.2189 237.25 77.1929 237.25H100.421C101.398 237.25 102.365 237.056 103.267 236.68C104.169 236.304 104.988 235.753 105.678 235.057C106.368 234.362 106.914 233.538 107.286 232.63C107.659 231.722 107.849 230.75 107.847 229.768V134.024C107.847 106.702 121.957 94.5742 150.088 94.5742C179.366 94.5742 192.153 105.354 192.153 132.304V180.726L211.36 196.133C211.654 196.369 211.891 196.669 212.052 197.01C212.214 197.35 212.297 197.724 212.295 198.102V209.928C212.297 210.259 212.234 210.587 212.109 210.894C211.984 211.2 211.8 211.479 211.567 211.713C211.334 211.947 211.057 212.133 210.752 212.258C210.447 212.384 210.12 212.448 209.791 212.445H192.153V229.768C192.153 231.752 192.937 233.655 194.333 235.059C195.729 236.462 197.622 237.25 199.596 237.25H222.825C223.801 237.25 224.768 237.056 225.67 236.68C226.572 236.304 227.392 235.753 228.081 235.057C228.771 234.362 229.318 233.538 229.69 232.63C230.062 231.722 230.252 230.75 230.25 229.768V125.939C230.25 80.78 203.018 62.5 176.756 62.5Z" fill="#FFF487"/>
</svg>

